<?xml version="1.0" encoding="UTF-8" standalone="no"?>
<svg
   width="128"
   height="128"
   version="1.1"
   id="svg6"
   sodipodi:docname="icon.svg"
   xml:space="preserve"
   inkscape:version="1.3.2 (091e20e, 2023-11-25, custom)"
   xmlns:inkscape="http://www.inkscape.org/namespaces/inkscape"
   xmlns:sodipodi="http://sodipodi.sourceforge.net/DTD/sodipodi-0.dtd"
   xmlns:xlink="http://www.w3.org/1999/xlink"
   xmlns="http://www.w3.org/2000/svg"
   xmlns:svg="http://www.w3.org/2000/svg"><defs
     id="defs6"><linearGradient
       id="linearGradient15"
       inkscape:collect="always"><stop
         style="stop-color:#586564;stop-opacity:0.68075114;"
         offset="0.38605231"
         id="stop15" /><stop
         style="stop-color:#3b4443;stop-opacity:0;"
         offset="1"
         id="stop16" /></linearGradient><radialGradient
       inkscape:collect="always"
       xlink:href="#linearGradient15"
       id="radialGradient16"
       cx="64"
       cy="64"
       fx="64"
       fy="64"
       r="62"
       gradientUnits="userSpaceOnUse" /></defs><sodipodi:namedview
     id="namedview6"
     pagecolor="#505050"
     bordercolor="#ffffff"
     borderopacity="1"
     inkscape:showpageshadow="0"
     inkscape:pageopacity="0"
     inkscape:pagecheckerboard="1"
     inkscape:deskcolor="#505050"
     showgrid="false"
     inkscape:zoom="4.7851563"
     inkscape:cx="34.690612"
     inkscape:cy="70.217143"
     inkscape:window-width="2560"
     inkscape:window-height="1506"
     inkscape:window-x="-11"
     inkscape:window-y="-11"
     inkscape:window-maximized="1"
     inkscape:current-layer="svg6" /><rect
     width="124"
     height="124"
     x="2"
     y="2"
     fill="#363d52"
     stroke="#212532"
     stroke-width="4"
     rx="14"
     id="rect1"
     style="display:inline;fill:url(#radialGradient16);fill-opacity:1;stroke:none;stroke-opacity:1"
     inkscape:label="Bg" /><path
     id="path6"
     style="fill:#29103a;stroke:none;stroke-width:1;stroke-linecap:butt;stroke-linejoin:miter;stroke-dasharray:none;stroke-opacity:1;fill-opacity:1"
     d="m 64,18.975272 c -7.531511,-4.42e-4 -12.926214,7.247711 -13.636719,13.636719 -0.57621,5.18143 8.359375,13.21875 8.359375,13.21875 l 0.103516,43.720703 c -8.185974,0.237394 -16.31922,0.962873 -24.408203,2.111328 -0.654922,-4.035485 -2.148283,-15.177634 0.376953,-20.65039 2.974845,-6.447159 12.224609,-7.419922 12.224609,-7.419922 L 46.810547,39.037772 23.615234,60.981132 17.509766,94.705741 c -1.160309,0.252476 -2.322009,0.497826 -3.480469,0.767578 -6.1329576,0.755835 -4.7331392,14.101911 -0.05664,13.486331 33.590021,-6.07844 67.181461,-6.88434 100.771484,0 3.46551,1.14199 5.304,-12.001588 0,-13.378909 -1.42818,-0.355348 -2.85261,-0.676986 -4.27734,-1 L 104.38477,60.981132 81.189453,39.037772 80.980469,63.59246 c 0,0 9.249767,0.972769 12.224609,7.419922 2.487944,5.391934 1.073346,16.28905 0.404297,20.472656 -8.232079,-1.160322 -16.41135,-1.820005 -24.537109,-1.984375 l 0.205078,-43.775391 c 0,0 8.922966,-7.960319 8.359375,-13.113281 C 76.937795,26.221706 71.531511,18.97483 64,18.975272 Z"
     inkscape:label="Form" /><circle
     style="fill:#93413b;stroke:#000000;stroke-width:1;stroke-linecap:square;stroke-linejoin:round;stroke-miterlimit:11.3;stroke-dasharray:none;stroke-opacity:1;paint-order:fill markers stroke;fill-opacity:1"
     id="path7"
     cx="63.999428"
     cy="32.049973"
     r="6.6866326"
     inkscape:label="Stone" /><path
     style="display:inline;fill:#65298a;fill-opacity:1;stroke:none;stroke-width:1px;stroke-linecap:butt;stroke-linejoin:miter;stroke-opacity:1"
     d="M 66.874534,45.112725 C 80.517862,33.33815 75.35062,26.494136 65.260939,18.846599 c 4.612191,0.453134 12.330141,6.193715 12.443505,14.408564 0.06431,4.659842 -6.232935,10.296397 -8.4271,12.470109 0.04317,0.997557 -0.205078,43.775391 -0.205078,43.775391 8.255383,-0.02567 16.420763,0.758702 24.537109,1.984375 l -0.715924,1.366417 C 84.486416,91.584063 75.895644,90.867881 67.070789,90.853948 Z m -21.944348,-4.545459 1.880361,-1.529494 0.208984,24.554688 -2.022355,0.273969 c 0,0 -7.739649,2.577428 -9.656772,5.807537 -3.744248,6.308583 -0.922435,21.988806 -0.922435,21.988806 8.136068,-0.976925 16.272135,-1.950615 24.408203,-2.111328 l -0.44276,1.29813 c -8.570212,0.252499 -17.220173,1.063249 -25.929636,2.290511 0,0 -2.296997,-16.836882 1.684645,-23.672672 2.546791,-4.3724 10.905498,-6.730783 10.905498,-6.730783 z m 36.259267,-1.529494 23.195317,21.94336 6.08203,33.599609 3.06953,0.888557 c 1.35222,0.436896 1.95137,1.079177 1.38996,2.037973 l -6.73091,-1.67453 -5.52224,-33.663249 -21.496564,-20.991999 z m 33.875677,56.521263 c 5.25791,2.876533 2.66689,13.790115 -0.32099,13.400615 l -2.80167,-0.70557 c 4.51481,-1.39061 4.43125,-9.785168 1.59386,-12.784782 z"
     id="path10-3"
     sodipodi:nodetypes="ccsccccccccccaccccscccccccccccccccc"
     inkscape:label="ShForm" /><path
     id="path11"
     style="fill:none;stroke:#000000;stroke-width:1;stroke-linecap:butt;stroke-linejoin:miter;stroke-dasharray:none;stroke-opacity:1;fill-opacity:1"
     d="m 64,18.975272 c -7.531511,-4.42e-4 -12.926214,7.247711 -13.636719,13.636719 -0.57621,5.18143 8.359375,13.21875 8.359375,13.21875 l 0.103516,43.720703 c -8.185974,0.237394 -16.31922,0.962873 -24.408203,2.111328 -0.654922,-4.035485 -2.148283,-15.177634 0.376953,-20.65039 2.974845,-6.447159 12.224609,-7.419922 12.224609,-7.419922 L 46.810547,39.037772 23.615234,60.981132 17.509766,94.705741 c -1.160309,0.252476 -2.322009,0.497826 -3.480469,0.767578 -6.1329576,0.755835 -4.7331392,14.101911 -0.05664,13.486331 33.590021,-6.07844 67.181461,-6.88434 100.771484,0 3.46551,1.14199 5.304,-12.001588 0,-13.378909 -1.42818,-0.355348 -2.85261,-0.676986 -4.27734,-1 L 104.38477,60.981132 81.189453,39.037772 80.980469,63.59246 c 0,0 9.249767,0.972769 12.224609,7.419922 2.487944,5.391934 1.073346,16.28905 0.404297,20.472656 -8.232079,-1.160322 -16.41135,-1.820005 -24.537109,-1.984375 l 0.205078,-43.775391 c 0,0 8.922966,-7.960319 8.359375,-13.113281 C 76.937795,26.221706 71.531511,18.97483 64,18.975272 Z"
     inkscape:label="Outline" /><path
     id="path12"
     style="display:inline;fill:#ddfffb;fill-opacity:1;stroke:none;stroke-width:1px;stroke-linecap:butt;stroke-linejoin:miter;stroke-opacity:1"
     d="m 64.105469,26.767578 -4.1875,1.496094 -0.791016,3.90625 1.134766,-3.585938 z m 5.037109,5.466797 -1.134766,3.583984 -3.845703,1.81836 4.1875,-1.496094 z"
     inkscape:label="HiStone" /></svg>
